<svg xmlns="http://www.w3.org/2000/svg" xmlns:xlink="http://www.w3.org/1999/xlink" id="Capa_1" x="0" y="0" version="1.1" viewBox="0 0 512 512" style="enable-background:new 0 0 512 512" xml:space="preserve"><g><g><path fill="#919191" d="M257,0C116.39,0,0,114.39,0,255s116.39,257,257,257s255-116.39,255-257S397.61,0,257,0z M287,392c0,16.54-13.47,30-30,30 c-16.54,0-30-13.46-30-30V240c0-16.54,13.46-30,30-30c16.53,0,30,13.46,30,30V392z M257,150c-16.54,0-30-13.46-30-30 s13.46-30,30-30c16.53,0,30,13.46,30,30S273.53,150,257,150z"/></g></g></svg>