<svg id="Layer_1" enable-background="new 0 0 512 512" height="512" viewBox="0 0 512 512" width="512"
    xmlns="http://www.w3.org/2000/svg">
    <g>
        <path fill="#919191" 
            d="m449.391 0h-63.82c-8.284 0-15 6.716-15 15s6.716 15 15 15h63.82c17.981 0 32.609 14.628 32.609 32.609v63.82c0 8.284 6.716 15 15 15s15-6.716 15-15v-63.82c0-34.523-28.086-62.609-62.609-62.609z" />
        <path fill="#919191" 
            d="m15 141.429c8.284 0 15-6.716 15-15v-63.82c0-17.981 14.628-32.609 32.609-32.609h63.82c8.284 0 15-6.716 15-15s-6.716-15-15-15h-63.82c-34.523 0-62.609 28.086-62.609 62.609v63.82c0 8.284 6.716 15 15 15z" />
        <path fill="#919191" 
            d="m126.429 482h-63.82c-17.981 0-32.609-14.628-32.609-32.609v-63.82c0-8.284-6.716-15-15-15s-15 6.716-15 15v63.82c0 34.523 28.086 62.609 62.609 62.609h63.82c8.284 0 15-6.716 15-15s-6.716-15-15-15z" />
        <path fill="#919191" 
            d="m497 370.571c-8.284 0-15 6.716-15 15v63.82c0 17.981-14.628 32.609-32.609 32.609h-63.82c-8.284 0-15 6.716-15 15s6.716 15 15 15h63.82c34.523 0 62.609-28.086 62.609-62.609v-63.82c0-8.284-6.716-15-15-15z" />
        <circle fill="#919191"  cx="256" cy="164.56" r="16.06" />
        <path fill="#919191" 
            d="m376.69 323.23-52.16-52.16-71.83 71.83c-5.86 5.86-15.36 5.86-21.21 0l-36.32-36.32-58.13 58.14c-2.82 2.81-6.63 4.39-10.61 4.39h-60.87v62.33c0 8.28 6.72 15 15 15h350.88c8.28 0 15-6.72 15-15v-103.82h-59.14c-3.98 0-7.8-1.58-10.61-4.39z" />
        <path fill="#919191" 
            d="m446.44 80.56c0-8.28-6.72-15-15-15h-350.88c-8.28 0-15 6.72-15 15v258.55h54.66l64.34-64.34c5.86-5.86 15.36-5.86 21.21 0l36.32 36.31 71.84-71.83c5.86-5.86 15.35-5.86 21.21 0l58.37 58.37h52.93zm-190.44 130.06c-25.4 0-46.06-20.66-46.06-46.06 0-25.39 20.66-46.06 46.06-46.06s46.06 20.67 46.06 46.06c0 25.4-20.66 46.06-46.06 46.06z" />
    </g>
</svg>